<svg xmlns="http://www.w3.org/2000/svg" viewBox="0 0 79.2 92.33"><title>c22</title><g data-name="&#x56FE;&#x5C42; 2"><g data-name="Layer 1"><path d="M22.7 46.24a51.55 51.55 0 0 1 1.37-12.61H.92A81.41 81.41 0 0 0 0 46.24a85.05 85.05 0 0 0 1.06 11.91H24a50.4 50.4 0 0 1-1.3-11.91z" fill="#ed1c24"/><path d="M25.79 28.73c2.86-6 7.71-9.06 14.56-9.06S52 22.8 54.73 28.73h24.42C75.24 9.53 62.48 0 41 0 19.51.4 6.49 9.92 1.89 28.73zM54.82 66.25a17.45 17.45 0 0 1-13.45 6.39c-7.52.1-12.75-3.13-15.72-9.59H2.06C6.85 82.5 19.94 92.31 41.37 92.31c20.68.5 33.8-11.1 37.83-29.26H62.38a10.31 10.31 0 0 0-7.56 3.2z" fill="#1a1a1a"/></g></g></svg>