<svg width="406" height="127" viewBox="0 0 406 127" fill="none" xmlns="http://www.w3.org/2000/svg">
<g clip-path="url(#clip0_6_196)">
<path d="M22.7 52.2399C22.6358 47.9962 23.096 43.7608 24.07 39.6299H0.920002C0.286902 43.803 -0.0206916 48.0191 1.82458e-06 52.2399C0.0734832 56.2298 0.427692 60.2097 1.06 64.1499H24C23.0947 60.2457 22.6583 56.2474 22.7 52.2399Z" fill="#ED1C24"/>
<path d="M25.79 34.73C28.65 28.73 33.5 25.67 40.35 25.67C47.2 25.67 52 28.8 54.73 34.73H79.15C75.24 15.53 62.48 6 41 6C19.51 6.4 6.49001 15.92 1.89001 34.73H25.79ZM54.82 72.25C53.1883 74.2413 51.1362 75.8469 48.8108 76.9517C46.4855 78.0565 43.9445 78.633 41.37 78.64C33.85 78.74 28.62 75.51 25.65 69.05H2.06001C6.85001 88.5 19.94 98.31 41.37 98.31C62.05 98.81 75.17 87.21 79.2 69.05H62.38C60.9679 69.0372 59.5682 69.3146 58.2678 69.8651C56.9673 70.4156 55.7938 71.2273 54.82 72.25Z" fill="#1A1A1A"/>
</g>
<path d="M111.71 43.45V97H93.3349V57.625H85.4599V43.45H111.71ZM93.3349 22.45H111.71V37.15H93.3349V22.45ZM153.218 55.525C149.508 55.525 145.308 56.225 140.618 57.625V97H122.243V41.35H138.518L139.568 46.6C142.858 44.43 146.218 42.855 149.648 41.875C153.148 40.825 156.088 40.3 158.468 40.3H163.193C167.953 40.3 171.768 41.735 174.638 44.605C177.508 47.475 178.943 51.29 178.943 56.05V97H160.568V59.2C160.568 58.15 160.218 57.275 159.518 56.575C158.818 55.875 157.943 55.525 156.893 55.525H153.218ZM209.905 53.425C207.105 53.425 205.705 54.825 205.705 57.625V63.4H223.555V57.625C223.555 54.825 222.155 53.425 219.355 53.425H209.905ZM239.83 95.95C226.32 97.35 214.07 98.05 203.08 98.05C198.32 98.05 194.505 96.615 191.635 93.745C188.765 90.875 187.33 87.06 187.33 82.3V57.1C187.33 51.85 188.8 47.755 191.74 44.815C194.75 41.805 198.88 40.3 204.13 40.3H225.13C230.38 40.3 234.475 41.805 237.415 44.815C240.425 47.755 241.93 51.85 241.93 57.1V76.525H205.705V80.725C205.705 81.775 206.055 82.65 206.755 83.35C207.455 84.05 208.33 84.4 209.38 84.4C216.31 84.4 226.46 83.875 239.83 82.825V95.95ZM288.614 40.3C294.284 40.3 298.659 42.4 301.739 46.6C304.959 44.43 308.424 42.855 312.134 41.875C315.914 40.825 319.274 40.3 322.214 40.3H323.264C328.024 40.3 331.839 41.735 334.709 44.605C337.579 47.475 339.014 51.29 339.014 56.05V97H320.639V59.2C320.639 58.15 320.289 57.275 319.589 56.575C318.889 55.875 318.014 55.525 316.964 55.525H316.439C313.289 55.525 309.264 56.225 304.364 57.625V97H285.989V59.2C285.989 58.15 285.639 57.275 284.939 56.575C284.239 55.875 283.364 55.525 282.314 55.525H281.789C278.639 55.525 274.614 56.225 269.714 57.625V97H251.339V41.35H267.614L268.664 46.6C271.954 44.43 275.314 42.855 278.744 41.875C282.244 40.825 285.184 40.3 287.564 40.3H288.614ZM370.494 83.35C374.204 83.35 378.404 82.65 383.094 81.25V74.95H367.869C366.819 74.95 365.944 75.3 365.244 76C364.544 76.7 364.194 77.575 364.194 78.625V79.675C364.194 80.725 364.544 81.6 365.244 82.3C365.944 83 366.819 83.35 367.869 83.35H370.494ZM351.069 42.4C363.879 41 375.429 40.3 385.719 40.3C390.479 40.3 394.294 41.735 397.164 44.605C400.034 47.475 401.469 51.29 401.469 56.05V97H385.194L384.144 91.75C380.854 93.92 377.459 95.53 373.959 96.58C370.529 97.56 367.624 98.05 365.244 98.05H361.569C356.809 98.05 352.994 96.615 350.124 93.745C347.254 90.875 345.819 87.06 345.819 82.3V77.575C345.819 72.815 347.254 69 350.124 66.13C352.994 63.26 356.809 61.825 361.569 61.825H383.094V57.625C383.094 56.575 382.744 55.7 382.044 55C381.344 54.3 380.469 53.95 379.419 53.95C374.869 53.95 369.829 54.16 364.299 54.58C358.839 55 354.429 55.315 351.069 55.525V42.4Z" fill="#1A1A1A"/>
<defs>
<clipPath id="clip0_6_196">
<rect width="79.2" height="92.33" fill="white" transform="translate(0 6)"/>
</clipPath>
</defs>
</svg>
